<svg xmlns="http://www.w3.org/2000/svg" xmlns:xlink="http://www.w3.org/1999/xlink" width="500" zoomAndPan="magnify" viewBox="0 0 375 374.999991" height="500" preserveAspectRatio="xMidYMid meet" version="1.2"><defs><clipPath id="768f064f0e"><path d="M 81 251 L 295 251 L 295 279.421875 L 81 279.421875 Z M 81 251 "/></clipPath><clipPath id="d316ae6852"><path d="M 69.285156 95.671875 L 188 95.671875 L 188 242 L 69.285156 242 Z M 69.285156 95.671875 "/></clipPath><clipPath id="41fb4fcc49"><path d="M 187 95.671875 L 305.535156 95.671875 L 305.535156 242 L 187 242 Z M 187 95.671875 "/></clipPath></defs><g id="e9a1828efd"><g clip-rule="nonzero" clip-path="url(#768f064f0e)"><path style=" stroke:none;fill-rule:nonzero;fill:#000000;fill-opacity:1;" d="M 112.105469 279.003906 L 112.105469 266.8125 C 112.105469 262.148438 109.265625 259.09375 104.398438 259.09375 C 101.960938 259.09375 99.3125 259.898438 97.492188 262.550781 C 96.074219 260.324219 94.039062 259.09375 90.992188 259.09375 C 88.957031 259.09375 86.925781 259.710938 85.316406 261.9375 L 85.316406 259.496094 L 81.058594 259.496094 L 81.058594 279.003906 L 85.316406 279.003906 L 85.316406 268.234375 C 85.316406 264.777344 87.136719 263.144531 89.972656 263.144531 C 92.8125 263.144531 94.230469 264.964844 94.230469 268.234375 L 94.230469 279.003906 L 98.484375 279.003906 L 98.484375 268.234375 C 98.484375 264.777344 100.519531 263.144531 103.144531 263.144531 C 105.980469 263.144531 107.398438 264.964844 107.398438 268.234375 L 107.398438 279.003906 Z M 175.234375 259.496094 L 168.328125 259.496094 L 168.328125 253.601562 L 164.074219 253.601562 L 164.074219 259.496094 L 160.21875 259.496094 L 160.21875 263.355469 L 164.074219 263.355469 L 164.074219 272.304688 C 164.074219 276.78125 165.894531 279.40625 170.765625 279.40625 C 172.585938 279.40625 174.617188 278.792969 176.039062 277.988281 L 174.808594 274.316406 C 173.578125 275.121094 172.160156 275.335938 171.144531 275.335938 C 169.109375 275.335938 168.304688 274.105469 168.304688 272.09375 L 168.304688 263.355469 L 175.210938 263.355469 L 175.210938 259.496094 Z M 211.363281 259.070312 C 208.925781 259.070312 207.296875 260.300781 206.277344 261.914062 L 206.277344 259.472656 L 202.023438 259.472656 L 202.023438 278.980469 L 206.277344 278.980469 L 206.277344 267.996094 C 206.277344 264.753906 207.695312 262.90625 210.34375 262.90625 C 211.148438 262.90625 212.164062 263.121094 212.992188 263.308594 L 214.222656 259.238281 C 213.371094 259.070312 212.164062 259.070312 211.363281 259.070312 Z M 156.769531 261.105469 C 154.734375 259.6875 151.898438 259.070312 148.847656 259.070312 C 143.976562 259.070312 140.738281 261.507812 140.738281 265.367188 C 140.738281 268.613281 143.171875 270.457031 147.429688 271.050781 L 149.460938 271.265625 C 151.683594 271.667969 152.914062 272.28125 152.914062 273.300781 C 152.914062 274.71875 151.28125 275.738281 148.445312 275.738281 C 145.609375 275.738281 143.363281 274.71875 141.941406 273.703125 L 139.910156 276.945312 C 142.132812 278.578125 145.183594 279.382812 148.234375 279.382812 C 153.90625 279.382812 157.167969 276.734375 157.167969 273.085938 C 157.167969 269.628906 154.523438 267.808594 150.480469 267.191406 L 148.445312 266.980469 C 146.625 266.765625 145.207031 266.363281 145.207031 265.15625 C 145.207031 263.734375 146.625 262.929688 148.871094 262.929688 C 151.304688 262.929688 153.742188 263.949219 154.972656 264.5625 Z M 270 259.070312 C 267.5625 259.070312 265.933594 260.300781 264.914062 261.914062 L 264.914062 259.472656 L 260.660156 259.472656 L 260.660156 278.980469 L 264.914062 278.980469 L 264.914062 267.996094 C 264.914062 264.753906 266.332031 262.90625 268.980469 262.90625 C 269.785156 262.90625 270.800781 263.121094 271.628906 263.308594 L 272.859375 259.285156 C 272.03125 259.070312 270.828125 259.070312 270 259.070312 Z M 215.617188 269.25 C 215.617188 275.148438 219.683594 279.40625 225.972656 279.40625 C 228.8125 279.40625 230.84375 278.792969 232.878906 277.183594 L 230.84375 273.726562 C 229.214844 274.957031 227.605469 275.550781 225.761719 275.550781 C 222.308594 275.550781 219.875 273.109375 219.875 269.25 C 219.875 265.582031 222.308594 263.144531 225.761719 262.953125 C 227.582031 262.953125 229.214844 263.570312 230.84375 264.777344 L 232.878906 261.320312 C 230.84375 259.6875 228.8125 259.09375 225.972656 259.09375 C 219.683594 259.070312 215.617188 263.355469 215.617188 269.25 Z M 254.984375 269.25 L 254.984375 259.496094 L 250.730469 259.496094 L 250.730469 261.9375 C 249.308594 260.113281 247.277344 259.09375 244.628906 259.09375 C 239.144531 259.09375 234.886719 263.355469 234.886719 269.25 C 234.886719 275.148438 239.144531 279.40625 244.628906 279.40625 C 247.464844 279.40625 249.5 278.390625 250.730469 276.566406 L 250.730469 279.003906 L 254.984375 279.003906 Z M 239.355469 269.25 C 239.355469 265.792969 241.578125 262.953125 245.242188 262.953125 C 248.695312 262.953125 251.128906 265.605469 251.128906 269.25 C 251.128906 272.707031 248.695312 275.550781 245.242188 275.550781 C 241.601562 275.335938 239.355469 272.683594 239.355469 269.25 Z M 188.425781 259.070312 C 182.753906 259.070312 178.6875 263.144531 178.6875 269.226562 C 178.6875 275.335938 182.753906 279.382812 188.640625 279.382812 C 191.476562 279.382812 194.316406 278.578125 196.5625 276.734375 L 194.527344 273.679688 C 192.894531 274.910156 190.863281 275.714844 188.851562 275.714844 C 186.203125 275.714844 183.582031 274.484375 182.964844 271.050781 L 197.363281 271.050781 C 197.363281 270.433594 197.363281 270.03125 197.363281 269.417969 C 197.554688 263.144531 193.890625 259.070312 188.425781 259.070312 Z M 188.425781 262.742188 C 191.074219 262.742188 192.894531 264.375 193.296875 267.40625 L 183.15625 267.40625 C 183.554688 264.777344 185.378906 262.742188 188.425781 262.742188 Z M 294.164062 269.25 L 294.164062 251.777344 L 289.90625 251.777344 L 289.90625 261.9375 C 288.488281 260.113281 286.453125 259.09375 283.808594 259.09375 C 278.320312 259.09375 274.066406 263.355469 274.066406 269.25 C 274.066406 275.148438 278.320312 279.40625 283.808594 279.40625 C 286.644531 279.40625 288.675781 278.390625 289.90625 276.566406 L 289.90625 279.003906 L 294.164062 279.003906 Z M 278.535156 269.25 C 278.535156 265.792969 280.757812 262.953125 284.421875 262.953125 C 287.875 262.953125 290.308594 265.605469 290.308594 269.25 C 290.308594 272.707031 287.875 275.550781 284.421875 275.550781 C 280.757812 275.335938 278.535156 272.683594 278.535156 269.25 Z M 136.054688 269.25 L 136.054688 259.496094 L 131.800781 259.496094 L 131.800781 261.9375 C 130.382812 260.113281 128.347656 259.09375 125.699219 259.09375 C 120.214844 259.09375 115.957031 263.355469 115.957031 269.25 C 115.957031 275.148438 120.214844 279.40625 125.699219 279.40625 C 128.539062 279.40625 130.570312 278.390625 131.800781 276.566406 L 131.800781 279.003906 L 136.054688 279.003906 Z M 120.238281 269.25 C 120.238281 265.792969 122.460938 262.953125 126.125 262.953125 C 129.578125 262.953125 132.011719 265.605469 132.011719 269.25 C 132.011719 272.707031 129.578125 275.550781 126.125 275.550781 C 122.460938 275.335938 120.238281 272.683594 120.238281 269.25 Z M 120.238281 269.25 "/></g><path style=" stroke:none;fill-rule:nonzero;fill:#ff5a00;fill-opacity:1;" d="M 155.347656 111.339844 L 219.28125 111.339844 L 219.28125 226.351562 L 155.347656 226.351562 Z M 155.347656 111.339844 "/><g clip-rule="nonzero" clip-path="url(#d316ae6852)"><path style=" stroke:none;fill-rule:nonzero;fill:#eb001b;fill-opacity:1;" d="M 159.605469 168.84375 C 159.605469 145.476562 170.574219 124.738281 187.410156 111.339844 C 175.019531 101.585938 159.390625 95.6875 142.34375 95.6875 C 101.960938 95.6875 69.285156 128.410156 69.285156 168.84375 C 69.285156 209.28125 101.960938 242 142.34375 242 C 159.390625 242 175.019531 236.105469 187.410156 226.351562 C 170.550781 213.140625 159.605469 192.210938 159.605469 168.84375 Z M 159.605469 168.84375 "/></g><g clip-rule="nonzero" clip-path="url(#41fb4fcc49)"><path style=" stroke:none;fill-rule:nonzero;fill:#f79e1b;fill-opacity:1;" d="M 305.535156 168.84375 C 305.535156 209.28125 272.859375 242 232.476562 242 C 215.429688 242 199.800781 236.105469 187.410156 226.351562 C 204.457031 212.929688 215.214844 192.210938 215.214844 168.84375 C 215.214844 145.476562 204.246094 124.738281 187.410156 111.339844 C 199.777344 101.585938 215.40625 95.6875 232.453125 95.6875 C 272.859375 95.6875 305.535156 128.621094 305.535156 168.84375 Z M 305.535156 168.84375 "/></g></g></svg>