<svg xmlns="http://www.w3.org/2000/svg" xmlns:xlink="http://www.w3.org/1999/xlink" width="500" zoomAndPan="magnify" viewBox="0 0 375 374.999991" height="500" preserveAspectRatio="xMidYMid meet" version="1.2"><defs><clipPath id="6011445051"><path d="M 50 78.984375 L 296 78.984375 L 296 295 L 50 295 Z M 50 78.984375 "/></clipPath><clipPath id="39d12aa9d4"><path d="M 50 147 L 325 147 L 325 295.734375 L 50 295.734375 Z M 50 147 "/></clipPath><clipPath id="536f7f1e88"><path d="M 131.25 167.355469 L 243.75 167.355469 L 243.75 279.855469 L 131.25 279.855469 Z M 131.25 167.355469 "/></clipPath><clipPath id="a7e4f37402"><path d="M 187.5 167.355469 C 156.433594 167.355469 131.25 192.539062 131.25 223.605469 C 131.25 254.671875 156.433594 279.855469 187.5 279.855469 C 218.566406 279.855469 243.75 254.671875 243.75 223.605469 C 243.75 192.539062 218.566406 167.355469 187.5 167.355469 Z M 187.5 167.355469 "/></clipPath></defs><g id="e2581c5977"><g clip-rule="nonzero" clip-path="url(#6011445051)"><path style=" stroke:none;fill-rule:evenodd;fill:#07009f;fill-opacity:1;" d="M 295.449219 128.023438 C 295.449219 117.179688 286.675781 108.40625 275.832031 108.40625 C 241.179688 108.40625 170.554688 108.40625 146.648438 108.40625 C 141.457031 108.40625 136.457031 106.339844 132.777344 102.660156 C 127.605469 97.488281 120.019531 89.902344 114.847656 84.730469 C 111.171875 81.054688 106.171875 78.984375 100.980469 78.984375 C 92.992188 78.984375 80.464844 78.984375 69.871094 78.984375 C 64.660156 78.984375 59.679688 81.054688 56.003906 84.730469 C 52.324219 88.410156 50.257812 93.390625 50.257812 98.597656 C 50.257812 139.628906 50.257812 234.105469 50.257812 275.136719 C 50.257812 280.347656 52.324219 285.328125 56.003906 289.007812 C 59.679688 292.683594 64.660156 294.753906 69.871094 294.753906 C 115.804688 294.753906 229.898438 294.753906 275.832031 294.753906 C 281.042969 294.753906 286.023438 292.683594 289.703125 289.007812 C 293.378906 285.328125 295.449219 280.347656 295.449219 275.136719 C 295.449219 239.335938 295.449219 163.824219 295.449219 128.023438 "/></g><path style=" stroke:none;fill-rule:evenodd;fill:#f9f6f9;fill-opacity:1;" d="M 285.640625 137.832031 C 285.640625 132.410156 281.253906 128.023438 275.832031 128.023438 L 74.773438 128.023438 C 69.355469 128.023438 64.96875 132.410156 64.96875 137.832031 L 64.96875 270.234375 C 64.96875 275.65625 69.355469 280.042969 74.773438 280.042969 L 275.832031 280.042969 C 281.253906 280.042969 285.640625 275.65625 285.640625 270.234375 L 285.640625 137.832031 "/><g clip-rule="nonzero" clip-path="url(#39d12aa9d4)"><path style=" stroke:none;fill-rule:evenodd;fill:#07009f;fill-opacity:1;" d="M 324.527344 169.550781 C 325.617188 164.132812 324.066406 158.554688 320.292969 154.324219 C 316.519531 150.089844 310.925781 147.636719 305.027344 147.636719 C 254.089844 147.636719 135.921875 147.636719 92.417969 147.636719 C 82.878906 147.636719 74.679688 153.976562 72.917969 162.734375 C 67.628906 189.015625 56.710938 243.300781 50.601562 273.738281 C 49.507812 279.140625 51.058594 284.714844 54.835938 288.949219 C 58.589844 293.183594 64.203125 295.632812 70.101562 295.632812 C 121.035156 295.632812 239.207031 295.632812 282.710938 295.632812 C 292.25 295.632812 300.449219 289.292969 302.210938 280.539062 C 307.496094 254.257812 318.414062 199.972656 324.527344 169.550781 "/></g><g clip-rule="nonzero" clip-path="url(#536f7f1e88)"><g clip-rule="nonzero" clip-path="url(#a7e4f37402)"><path style=" stroke:none;fill-rule:nonzero;fill:#07009f;fill-opacity:1;" d="M 131.25 167.355469 L 243.75 167.355469 L 243.75 279.855469 L 131.25 279.855469 Z M 131.25 167.355469 "/></g></g></g></svg>