<svg xmlns="http://www.w3.org/2000/svg" xmlns:xlink="http://www.w3.org/1999/xlink" width="500" zoomAndPan="magnify" viewBox="0 0 375 374.999991" height="500" preserveAspectRatio="xMidYMid meet" version="1.2"><defs><clipPath id="c98e2d05b5"><path d="M 129 57.019531 L 246 57.019531 L 246 173 L 129 173 Z M 129 57.019531 "/></clipPath><clipPath id="70dd6d0abf"><path d="M 39.648438 118 L 144 118 L 144 311 L 39.648438 311 Z M 39.648438 118 "/></clipPath><clipPath id="c75053d67c"><path d="M 232 119 L 335.148438 119 L 335.148438 309 L 232 309 Z M 232 119 "/></clipPath><clipPath id="968aed6dd1"><path d="M 159.375 255.101562 L 215.625 255.101562 L 215.625 311.351562 L 159.375 311.351562 Z M 159.375 255.101562 "/></clipPath><clipPath id="99fab390a0"><path d="M 187.5 255.101562 C 171.96875 255.101562 159.375 267.691406 159.375 283.226562 C 159.375 298.757812 171.96875 311.351562 187.5 311.351562 C 203.03125 311.351562 215.625 298.757812 215.625 283.226562 C 215.625 267.691406 203.03125 255.101562 187.5 255.101562 Z M 187.5 255.101562 "/></clipPath></defs><g id="e554f1c67e"><g clip-rule="nonzero" clip-path="url(#c98e2d05b5)"><path style=" stroke:none;fill-rule:evenodd;fill:#07009f;fill-opacity:1;" d="M 187.359375 56.996094 C 155.386719 56.996094 129.460938 82.925781 129.460938 114.910156 C 129.460938 146.898438 155.386719 172.8125 187.359375 172.8125 C 219.332031 172.8125 245.273438 146.882812 245.273438 114.910156 C 245.273438 82.9375 219.347656 56.996094 187.359375 56.996094 Z M 167.289062 115.835938 L 167.289062 81.582031 C 167.289062 79.625 168.878906 78.039062 170.835938 78.039062 L 203.898438 78.039062 C 205.859375 78.039062 207.445312 79.625 207.445312 81.582031 L 207.445312 115.835938 L 220.441406 115.851562 C 223.445312 115.851562 225.097656 119.414062 223.09375 121.710938 L 189.6875 159.832031 C 188.222656 161.109375 185.988281 160.972656 184.707031 159.507812 L 151.828125 121.925781 C 149.4375 119.398438 151.351562 115.835938 154.292969 115.835938 Z M 167.289062 115.835938 "/></g><path style=" stroke:none;fill-rule:evenodd;fill:#07009f;fill-opacity:1;" d="M 122.507812 110.65625 L 53.109375 110.65625 C 50.316406 110.65625 47.699219 111.535156 45.539062 113.015625 L 172.929688 231.636719 C 181.179688 239.3125 194.957031 239.589844 203.144531 231.972656 L 330.152344 113.722656 C 327.824219 111.8125 324.847656 110.65625 321.625 110.65625 L 252.226562 110.65625 C 254.648438 148.207031 224.894531 179.902344 187.359375 179.902344 C 149.824219 179.902344 120.070312 148.207031 122.507812 110.65625 Z M 122.507812 110.65625 "/><g clip-rule="nonzero" clip-path="url(#70dd6d0abf)"><path style=" stroke:none;fill-rule:evenodd;fill:#07009f;fill-opacity:1;" d="M 40.945312 118.394531 C 40.113281 120.136719 39.648438 122.078125 39.648438 124.128906 L 39.648438 304.304688 C 39.648438 306.351562 40.113281 308.296875 40.945312 310.039062 L 143.84375 214.21875 Z M 40.945312 118.394531 "/></g><path style=" stroke:none;fill-rule:evenodd;fill:#07009f;fill-opacity:1;" d="M 45.539062 315.417969 C 47.695312 316.898438 50.316406 317.761719 53.109375 317.761719 L 321.625 317.761719 C 324.847656 317.761719 327.824219 316.605469 330.152344 314.691406 L 227.421875 219.042969 L 207.96875 237.15625 C 197.070312 247.296875 179.035156 246.972656 168.121094 236.816406 L 149.035156 219.042969 Z M 45.539062 315.417969 "/><g clip-rule="nonzero" clip-path="url(#c75053d67c)"><path style=" stroke:none;fill-rule:evenodd;fill:#07009f;fill-opacity:1;" d="M 334.28125 308.867188 C 334.808594 307.449219 335.085938 305.90625 335.085938 304.304688 L 335.085938 124.128906 C 335.085938 122.527344 334.808594 120.984375 334.28125 119.550781 L 232.601562 214.214844 Z M 334.28125 308.867188 "/></g><path style=" stroke:none;fill-rule:evenodd;fill:#07009f;fill-opacity:1;" d="M 174.378906 85.128906 L 174.378906 119.382812 C 174.378906 121.339844 172.792969 122.925781 170.835938 122.925781 L 162.09375 122.925781 L 187.359375 151.816406 L 212.640625 122.925781 L 203.898438 122.925781 C 201.941406 122.925781 200.355469 121.339844 200.355469 119.382812 L 200.355469 85.128906 Z M 174.378906 85.128906 "/><g clip-rule="nonzero" clip-path="url(#968aed6dd1)"><g clip-rule="nonzero" clip-path="url(#99fab390a0)"><path style=" stroke:none;fill-rule:nonzero;fill:#07009f;fill-opacity:1;" d="M 159.375 255.101562 L 215.625 255.101562 L 215.625 311.351562 L 159.375 311.351562 Z M 159.375 255.101562 "/></g></g></g></svg>