<svg xmlns="http://www.w3.org/2000/svg" xmlns:xlink="http://www.w3.org/1999/xlink" width="500" zoomAndPan="magnify" viewBox="0 0 375 374.999991" height="500" preserveAspectRatio="xMidYMid meet" version="1.2"><defs><clipPath id="6e444f4990"><path d="M 44.972656 69.726562 L 329.953125 69.726562 L 329.953125 117 L 44.972656 117 Z M 44.972656 69.726562 "/></clipPath><clipPath id="72942cf8ec"><path d="M 44.972656 163.210938 L 329.953125 163.210938 L 329.953125 211.605469 L 44.972656 211.605469 Z M 44.972656 163.210938 "/></clipPath><clipPath id="990cd250ca"><path d="M 44.972656 258 L 329.953125 258 L 329.953125 305.226562 L 44.972656 305.226562 Z M 44.972656 258 "/></clipPath><clipPath id="59e25e7a31"><path d="M 44.972656 69.726562 L 329.953125 69.726562 L 329.953125 117 L 44.972656 117 Z M 44.972656 69.726562 "/></clipPath><clipPath id="56e475c7b2"><path d="M 44.972656 163.210938 L 329.953125 163.210938 L 329.953125 211.605469 L 44.972656 211.605469 Z M 44.972656 163.210938 "/></clipPath><clipPath id="02914281d0"><path d="M 44.972656 258 L 329.953125 258 L 329.953125 305.226562 L 44.972656 305.226562 Z M 44.972656 258 "/></clipPath></defs><g id="4f1d5c5848"><g clip-rule="nonzero" clip-path="url(#6e444f4990)"><path style=" stroke:none;fill-rule:nonzero;fill:#ffffff;fill-opacity:1;" d="M 306.398438 116.828125 L 68.523438 116.828125 C 55.515625 116.828125 44.972656 106.285156 44.972656 93.277344 C 44.972656 80.273438 55.515625 69.730469 68.523438 69.730469 L 306.398438 69.730469 C 319.40625 69.730469 329.949219 80.273438 329.949219 93.277344 C 329.949219 106.285156 319.40625 116.828125 306.398438 116.828125 "/></g><g clip-rule="nonzero" clip-path="url(#72942cf8ec)"><path style=" stroke:none;fill-rule:nonzero;fill:#ffffff;fill-opacity:1;" d="M 306.398438 211.039062 L 68.523438 211.039062 C 55.515625 211.039062 44.972656 200.496094 44.972656 187.488281 C 44.972656 174.476562 55.515625 163.933594 68.523438 163.933594 L 306.398438 163.933594 C 319.40625 163.933594 329.949219 174.476562 329.949219 187.488281 C 329.949219 200.496094 319.40625 211.039062 306.398438 211.039062 "/></g><g clip-rule="nonzero" clip-path="url(#990cd250ca)"><path style=" stroke:none;fill-rule:nonzero;fill:#ffffff;fill-opacity:1;" d="M 306.398438 305.25 L 68.523438 305.25 C 55.515625 305.25 44.972656 294.707031 44.972656 281.695312 C 44.972656 268.6875 55.515625 258.144531 68.523438 258.144531 L 306.398438 258.144531 C 319.40625 258.144531 329.949219 268.6875 329.949219 281.695312 C 329.949219 294.707031 319.40625 305.25 306.398438 305.25 "/></g><g clip-rule="nonzero" clip-path="url(#59e25e7a31)"><path style=" stroke:none;fill-rule:nonzero;fill:#ffffff;fill-opacity:1;" d="M 306.398438 116.828125 L 68.523438 116.828125 C 55.515625 116.828125 44.972656 106.285156 44.972656 93.277344 C 44.972656 80.273438 55.515625 69.730469 68.523438 69.730469 L 306.398438 69.730469 C 319.40625 69.730469 329.949219 80.273438 329.949219 93.277344 C 329.949219 106.285156 319.40625 116.828125 306.398438 116.828125 "/></g><g clip-rule="nonzero" clip-path="url(#56e475c7b2)"><path style=" stroke:none;fill-rule:nonzero;fill:#ffffff;fill-opacity:1;" d="M 306.398438 211.039062 L 68.523438 211.039062 C 55.515625 211.039062 44.972656 200.496094 44.972656 187.488281 C 44.972656 174.476562 55.515625 163.933594 68.523438 163.933594 L 306.398438 163.933594 C 319.40625 163.933594 329.949219 174.476562 329.949219 187.488281 C 329.949219 200.496094 319.40625 211.039062 306.398438 211.039062 "/></g><g clip-rule="nonzero" clip-path="url(#02914281d0)"><path style=" stroke:none;fill-rule:nonzero;fill:#ffffff;fill-opacity:1;" d="M 306.398438 305.25 L 68.523438 305.25 C 55.515625 305.25 44.972656 294.707031 44.972656 281.695312 C 44.972656 268.6875 55.515625 258.144531 68.523438 258.144531 L 306.398438 258.144531 C 319.40625 258.144531 329.949219 268.6875 329.949219 281.695312 C 329.949219 294.707031 319.40625 305.25 306.398438 305.25 "/></g></g></svg>