<svg xmlns="http://www.w3.org/2000/svg" xmlns:xlink="http://www.w3.org/1999/xlink" width="500" zoomAndPan="magnify" viewBox="0 0 375 374.999991" height="500" preserveAspectRatio="xMidYMid meet" version="1.2"><defs><clipPath id="328c058784"><path d="M 54 54 L 321 54 L 321 321 L 54 321 Z M 54 54 "/></clipPath><clipPath id="837e08f5b4"><path d="M 71.347656 37.5 L 337.703125 71.375 L 303.828125 337.730469 L 37.472656 303.855469 Z M 71.347656 37.5 "/></clipPath><clipPath id="f21369f479"><path d="M 71.347656 37.5 L 337.703125 71.375 L 303.828125 337.730469 L 37.472656 303.855469 Z M 71.347656 37.5 "/></clipPath><clipPath id="5ee739fc06"><path d="M 147.320312 147.320312 L 227.679688 147.320312 L 227.679688 227.679688 L 147.320312 227.679688 Z M 147.320312 147.320312 "/></clipPath><clipPath id="c32009828e"><path d="M 187.5 147.320312 C 165.308594 147.320312 147.320312 165.308594 147.320312 187.5 C 147.320312 209.691406 165.308594 227.679688 187.5 227.679688 C 209.691406 227.679688 227.679688 209.691406 227.679688 187.5 C 227.679688 165.308594 209.691406 147.320312 187.5 147.320312 Z M 187.5 147.320312 "/></clipPath><clipPath id="192a144c07"><path d="M 0.320312 0.320312 L 80.679688 0.320312 L 80.679688 80.679688 L 0.320312 80.679688 Z M 0.320312 0.320312 "/></clipPath><clipPath id="0cf6b46abd"><path d="M 40.5 0.320312 C 18.308594 0.320312 0.320312 18.308594 0.320312 40.5 C 0.320312 62.691406 18.308594 80.679688 40.5 80.679688 C 62.691406 80.679688 80.679688 62.691406 80.679688 40.5 C 80.679688 18.308594 62.691406 0.320312 40.5 0.320312 Z M 40.5 0.320312 "/></clipPath><clipPath id="825b098d4d"><rect x="0" width="81" y="0" height="81"/></clipPath></defs><g id="eefba861b2"><g clip-rule="nonzero" clip-path="url(#328c058784)"><g clip-rule="nonzero" clip-path="url(#837e08f5b4)"><g clip-rule="nonzero" clip-path="url(#f21369f479)"><path style=" stroke:none;fill-rule:evenodd;fill:#ffffff;fill-opacity:1;" d="M 162.328125 86.75 C 164.570312 67.277344 166.425781 54.972656 166.425781 54.972656 L 207.601562 54.828125 C 207.601562 54.828125 209.550781 67.117188 211.933594 86.574219 C 222.289062 89.015625 232.023438 93.132812 240.914062 98.46875 C 256.28125 86.277344 266.296875 78.882812 266.296875 78.882812 L 295.523438 107.894531 C 295.523438 107.894531 288.207031 117.976562 276.121094 133.425781 C 281.574219 142.339844 285.722656 152.136719 288.292969 162.550781 C 307.734375 164.640625 320.007812 166.4375 320.007812 166.4375 L 320.15625 207.613281 C 320.15625 207.613281 307.890625 209.417969 288.46875 211.707031 C 285.957031 222.226562 281.832031 232.125 276.382812 241.132812 C 288.621094 256.398438 296.097656 266.308594 296.097656 266.308594 L 267.082031 295.53125 C 267.082031 295.53125 257.117188 288.128906 241.769531 276.007812 C 232.796875 281.523438 222.925781 285.710938 212.429688 288.300781 C 210.285156 307.734375 208.5625 320.019531 208.5625 320.019531 L 167.382812 320.164062 C 167.382812 320.164062 165.574219 307.894531 163.292969 288.476562 C 152.765625 286.011719 142.867188 281.835938 133.863281 276.398438 C 118.597656 288.632812 108.6875 296.105469 108.6875 296.105469 L 79.464844 267.097656 C 79.464844 267.097656 86.867188 257.125 98.992188 241.777344 C 93.519531 232.871094 89.347656 223.085938 86.753906 212.675781 C 67.28125 210.4375 54.976562 208.578125 54.976562 208.578125 L 54.828125 167.402344 C 54.828125 167.402344 67.117188 165.449219 86.570312 163.066406 C 89.074219 152.722656 93.121094 142.976562 98.472656 134.089844 C 86.277344 118.722656 78.890625 108.699219 78.890625 108.699219 L 107.898438 79.480469 C 107.898438 79.480469 117.976562 86.792969 133.425781 98.875 C 142.269531 93.46875 151.988281 89.347656 162.320312 86.765625 Z M 187.296875 132.496094 C 217.648438 132.386719 242.375 156.9375 242.484375 187.285156 C 242.59375 217.636719 218.046875 242.363281 187.695312 242.476562 C 157.351562 242.585938 132.617188 218.039062 132.507812 187.6875 C 132.398438 157.339844 156.949219 132.609375 187.296875 132.496094 Z M 187.40625 161.683594 C 201.644531 161.628906 213.25 173.15625 213.300781 187.394531 C 213.355469 201.636719 201.835938 213.238281 187.59375 213.289062 C 173.351562 213.34375 161.746094 201.816406 161.691406 187.582031 C 161.640625 173.339844 173.160156 161.738281 187.40625 161.683594 Z M 187.40625 161.683594 "/></g></g></g><g clip-rule="nonzero" clip-path="url(#5ee739fc06)"><g clip-rule="nonzero" clip-path="url(#c32009828e)"><g transform="matrix(1,0,0,1,147,147)"><g clip-path="url(#825b098d4d)"><g clip-rule="nonzero" clip-path="url(#192a144c07)"><g clip-rule="nonzero" clip-path="url(#0cf6b46abd)"><path style=" stroke:none;fill-rule:nonzero;fill:#ffffff;fill-opacity:1;" d="M 0.320312 0.320312 L 80.679688 0.320312 L 80.679688 80.679688 L 0.320312 80.679688 Z M 0.320312 0.320312 "/></g></g></g></g></g></g></g></svg>